<svg aria-label="色相選択" style="width:100%" viewBox="0 0 340 340"><circle cx="170" cy="170" r="165" fill="#fff" style="pointer-events:none"/><path fill="#ed3b6b" stroke="#fff" stroke-width=".5" d="M68.373 212.095a110 110 0 0 1-7.432-27.737l81.299-10.703a28 28 0 0 0 1.891 7.06Z" aria-label="色相1" aria-pressed="false" opacity=".2" style="cursor:pointer;outline:0" tabindex="0"/><path fill="#fa344d" stroke="#fff" stroke-width=".5" d="M60.941 184.358a110 110 0 0 1 0-28.716l81.299 10.703a28 28 0 0 0 0 7.31Z" aria-label="色相2" aria-pressed="true" style="cursor:pointer;outline:0" tabindex="0"/><path fill="#fc3633" stroke="#fff" stroke-width=".5" d="M60.941 155.642a110 110 0 0 1 7.432-27.737l75.758 31.38a28 28 0 0 0-1.891 7.06Z" aria-label="色相3" aria-pressed="false" opacity=".2" style="cursor:pointer;outline:0" tabindex="0"/><path fill="#fc4e33" stroke="#fff" stroke-width=".5" d="M68.373 127.905a110 110 0 0 1 14.358-24.869l65.055 49.919a28 28 0 0 0-3.655 6.33Z" aria-label="色相4" aria-pressed="false" opacity=".2" style="cursor:pointer;outline:0" tabindex="0"/><path fill="#ff6e2b" stroke="#fff" stroke-width=".5" d="M82.731 103.036a110 110 0 0 1 20.305-20.305l49.919 65.055a28 28 0 0 0-5.169 5.169Z" aria-label="色相5" aria-pressed="false" style="cursor:pointer;outline:0" tabindex="0"/><path fill="#ff9913" stroke="#fff" stroke-width=".5" d="M103.036 82.731a110 110 0 0 1 24.869-14.358l31.38 75.758a28 28 0 0 0-6.33 3.655Z" aria-label="色相6" aria-pressed="false" opacity=".2" style="cursor:pointer;outline:0" tabindex="0"/><path fill="#ffcb1f" stroke="#fff" stroke-width=".5" d="M127.905 68.373a110 110 0 0 1 27.737-7.432l10.703 81.299a28 28 0 0 0-7.06 1.891Z" aria-label="色相7" aria-pressed="false" opacity=".2" style="cursor:pointer;outline:0" tabindex="0"/><path fill="#fff231" stroke="#fff" stroke-width=".5" d="M155.642 60.941a110 110 0 0 1 28.716 0l-10.703 81.299a28 28 0 0 0-7.31 0Z" aria-label="色相8" aria-pressed="false" style="cursor:pointer;outline:0" tabindex="0"/><path fill="#cde52f" stroke="#fff" stroke-width=".5" d="M184.358 60.941a110 110 0 0 1 27.737 7.432l-31.38 75.758a28 28 0 0 0-7.06-1.891Z" aria-label="色相9" aria-pressed="false" opacity=".2" style="cursor:pointer;outline:0" tabindex="0"/><path fill="#99d02c" stroke="#fff" stroke-width=".5" d="M212.095 68.373a110 110 0 0 1 24.869 14.358l-49.919 65.055a28 28 0 0 0-6.33-3.655Z" aria-label="色相10" aria-pressed="false" opacity=".2" style="cursor:pointer;outline:0" tabindex="0"/><path fill="#55a73b" stroke="#fff" stroke-width=".5" d="M236.964 82.731a110 110 0 0 1 20.305 20.305l-65.055 49.919a28 28 0 0 0-5.169-5.169Z" aria-label="色相11" aria-pressed="false" opacity=".2" style="cursor:pointer;outline:0" tabindex="0"/><path fill="#32a65d" stroke="#fff" stroke-width=".5" d="M257.269 103.036a110 110 0 0 1 14.358 24.869l-75.758 31.38a28 28 0 0 0-3.655-6.33Z" aria-label="色相12" aria-pressed="false" style="cursor:pointer;outline:0" tabindex="0"/><path fill="#2da380" stroke="#fff" stroke-width=".5" d="M271.627 127.905a110 110 0 0 1 7.432 27.737l-81.299 10.703a28 28 0 0 0-1.891-7.06Z" aria-label="色相13" aria-pressed="false" opacity=".2" style="cursor:pointer;outline:0" tabindex="0"/><path fill="#1aa28e" stroke="#fff" stroke-width=".5" d="M279.059 155.642a110 110 0 0 1 0 28.716l-81.299-10.703a28 28 0 0 0 0-7.31Z" aria-label="色相14" aria-pressed="false" opacity=".2" style="cursor:pointer;outline:0" tabindex="0"/><path fill="#1fb3b3" stroke="#fff" stroke-width=".5" d="M279.059 184.358a110 110 0 0 1-7.432 27.737l-75.758-31.38a28 28 0 0 0 1.891-7.06Z" aria-label="色相15" aria-pressed="false" opacity=".2" style="cursor:pointer;outline:0" tabindex="0"/><path fill="#1c86ae" stroke="#fff" stroke-width=".5" d="M271.627 212.095a110 110 0 0 1-14.358 24.869l-65.055-49.919a28 28 0 0 0 3.655-6.33Z" aria-label="色相16" aria-pressed="false" opacity=".2" style="cursor:pointer;outline:0" tabindex="0"/><path fill="#2b78b0" stroke="#fff" stroke-width=".5" d="M257.269 236.964a110 110 0 0 1-20.305 20.305l-49.919-65.055a28 28 0 0 0 5.169-5.169Z" aria-label="色相17" aria-pressed="false" opacity=".2" style="cursor:pointer;outline:0" tabindex="0"/><path fill="#396bb0" stroke="#fff" stroke-width=".5" d="M236.964 257.269a110 110 0 0 1-24.869 14.358l-31.38-75.758a28 28 0 0 0 6.33-3.655Z" aria-label="色相18" aria-pressed="false" style="cursor:pointer;outline:0" tabindex="0"/><path fill="#5468ad" stroke="#fff" stroke-width=".5" d="M212.095 271.627a110 110 0 0 1-27.737 7.432l-10.703-81.299a28 28 0 0 0 7.06-1.891Z" aria-label="色相19" aria-pressed="false" opacity=".2" style="cursor:pointer;outline:0" tabindex="0"/><path fill="#6a64ae" stroke="#fff" stroke-width=".5" d="M184.358 279.059a110 110 0 0 1-28.716 0l10.703-81.299a28 28 0 0 0 7.31 0Z" aria-label="色相20" aria-pressed="false" opacity=".2" style="cursor:pointer;outline:0" tabindex="0"/><path fill="#8561ab" stroke="#fff" stroke-width=".5" d="M155.642 279.059a110 110 0 0 1-27.737-7.432l31.38-75.758a28 28 0 0 0 7.06 1.891Z" aria-label="色相21" aria-pressed="false" opacity=".2" style="cursor:pointer;outline:0" tabindex="0"/><path fill="#a459ab" stroke="#fff" stroke-width=".5" d="M127.905 271.627a110 110 0 0 1-24.869-14.358l49.919-65.055a28 28 0 0 0 6.33 3.655Z" aria-label="色相22" aria-pressed="false" opacity=".2" style="cursor:pointer;outline:0" tabindex="0"/><path fill="#c75bb1" stroke="#fff" stroke-width=".5" d="M103.036 257.269a110 110 0 0 1-20.305-20.305l65.055-49.919a28 28 0 0 0 5.169 5.169Z" aria-label="色相23" aria-pressed="false" opacity=".2" style="cursor:pointer;outline:0" tabindex="0"/><path fill="#df4c93" stroke="#fff" stroke-width=".5" d="M82.731 236.964a110 110 0 0 1-14.358-24.869l75.758-31.38a28 28 0 0 0 3.655 6.33Z" aria-label="色相24" aria-pressed="false" opacity=".2" style="cursor:pointer;outline:0" tabindex="0"/><circle cx="170" cy="170" r="29" fill="#fff" style="pointer-events:none"/><circle cx="28.975" cy="207.788" r="10" fill="#ed3b6b" stroke="rgba(0,0,0,0.15)" aria-label="色相1を選択" aria-pressed="false" opacity=".2" style="cursor:pointer;outline:0" tabindex="0"/><circle cx="24" cy="170" r="10" fill="#fa344d" stroke="rgba(0,0,0,0.15)" aria-label="色相2を選択" aria-pressed="true" style="cursor:pointer;outline:0" tabindex="0"/><circle cx="28.975" cy="132.212" r="10" fill="#fc3633" stroke="rgba(0,0,0,0.15)" aria-label="色相3を選択" aria-pressed="false" opacity=".2" style="cursor:pointer;outline:0" tabindex="0"/><circle cx="43.56" cy="97" r="10" fill="#fc4e33" stroke="rgba(0,0,0,0.15)" aria-label="色相4を選択" aria-pressed="false" opacity=".2" style="cursor:pointer;outline:0" tabindex="0"/><circle cx="66.762" cy="66.762" r="10" fill="#ff6e2b" stroke="rgba(0,0,0,0.15)" aria-label="色相5を選択" aria-pressed="false" style="cursor:pointer;outline:0" tabindex="0"/><circle cx="97" cy="43.56" r="10" fill="#ff9913" stroke="rgba(0,0,0,0.15)" aria-label="色相6を選択" aria-pressed="false" opacity=".2" style="cursor:pointer;outline:0" tabindex="0"/><circle cx="132.212" cy="28.975" r="10" fill="#ffcb1f" stroke="rgba(0,0,0,0.15)" aria-label="色相7を選択" aria-pressed="false" opacity=".2" style="cursor:pointer;outline:0" tabindex="0"/><circle cx="170" cy="24" r="10" fill="#fff231" stroke="rgba(0,0,0,0.15)" aria-label="色相8を選択" aria-pressed="false" style="cursor:pointer;outline:0" tabindex="0"/><circle cx="207.788" cy="28.975" r="10" fill="#cde52f" stroke="rgba(0,0,0,0.15)" aria-label="色相9を選択" aria-pressed="false" opacity=".2" style="cursor:pointer;outline:0" tabindex="0"/><circle cx="243" cy="43.56" r="10" fill="#99d02c" stroke="rgba(0,0,0,0.15)" aria-label="色相10を選択" aria-pressed="false" opacity=".2" style="cursor:pointer;outline:0" tabindex="0"/><circle cx="273.238" cy="66.762" r="10" fill="#55a73b" stroke="rgba(0,0,0,0.15)" aria-label="色相11を選択" aria-pressed="false" opacity=".2" style="cursor:pointer;outline:0" tabindex="0"/><circle cx="296.44" cy="97" r="10" fill="#32a65d" stroke="rgba(0,0,0,0.15)" aria-label="色相12を選択" aria-pressed="false" style="cursor:pointer;outline:0" tabindex="0"/><circle cx="311.025" cy="132.212" r="10" fill="#2da380" stroke="rgba(0,0,0,0.15)" aria-label="色相13を選択" aria-pressed="false" opacity=".2" style="cursor:pointer;outline:0" tabindex="0"/><circle cx="316" cy="170" r="10" fill="#1aa28e" stroke="rgba(0,0,0,0.15)" aria-label="色相14を選択" aria-pressed="false" opacity=".2" style="cursor:pointer;outline:0" tabindex="0"/><circle cx="311.025" cy="207.788" r="10" fill="#1fb3b3" stroke="rgba(0,0,0,0.15)" aria-label="色相15を選択" aria-pressed="false" opacity=".2" style="cursor:pointer;outline:0" tabindex="0"/><circle cx="296.44" cy="243" r="10" fill="#1c86ae" stroke="rgba(0,0,0,0.15)" aria-label="色相16を選択" aria-pressed="false" opacity=".2" style="cursor:pointer;outline:0" tabindex="0"/><circle cx="273.238" cy="273.238" r="10" fill="#2b78b0" stroke="rgba(0,0,0,0.15)" aria-label="色相17を選択" aria-pressed="false" opacity=".2" style="cursor:pointer;outline:0" tabindex="0"/><circle cx="243" cy="296.44" r="10" fill="#396bb0" stroke="rgba(0,0,0,0.15)" aria-label="色相18を選択" aria-pressed="false" style="cursor:pointer;outline:0" tabindex="0"/><circle cx="207.788" cy="311.025" r="10" fill="#5468ad" stroke="rgba(0,0,0,0.15)" aria-label="色相19を選択" aria-pressed="false" opacity=".2" style="cursor:pointer;outline:0" tabindex="0"/><circle cx="170" cy="316" r="10" fill="#6a64ae" stroke="rgba(0,0,0,0.15)" aria-label="色相20を選択" aria-pressed="false" opacity=".2" style="cursor:pointer;outline:0" tabindex="0"/><circle cx="132.212" cy="311.025" r="10" fill="#8561ab" stroke="rgba(0,0,0,0.15)" aria-label="色相21を選択" aria-pressed="false" opacity=".2" style="cursor:pointer;outline:0" tabindex="0"/><circle cx="97" cy="296.44" r="10" fill="#a459ab" stroke="rgba(0,0,0,0.15)" aria-label="色相22を選択" aria-pressed="false" opacity=".2" style="cursor:pointer;outline:0" tabindex="0"/><circle cx="66.762" cy="273.238" r="10" fill="#c75bb1" stroke="rgba(0,0,0,0.15)" aria-label="色相23を選択" aria-pressed="false" opacity=".2" style="cursor:pointer;outline:0" tabindex="0"/><circle cx="43.56" cy="243" r="10" fill="#df4c93" stroke="rgba(0,0,0,0.15)" aria-label="色相24を選択" aria-pressed="false" opacity=".2" style="cursor:pointer;outline:0" tabindex="0"/></svg>